<?xml version="1.0" encoding="utf-8"?>
<!-- Generator: Adobe Illustrator 26.1.0, SVG Export Plug-In . SVG Version: 6.00 Build 0)  -->
<svg version="1.1" id="Шар_1" xmlns="http://www.w3.org/2000/svg" xmlns:xlink="http://www.w3.org/1999/xlink" x="0px" y="0px"
	 viewBox="0 0 166 94" style="enable-background:new 0 0 166 94;" xml:space="preserve">
<style type="text/css">
	.st0{fill:#3C3C3B;}
</style>
<g>
	<g>
		<polygon class="st0" points="6.6,12.2 18.3,12.2 18.3,56.9 12.5,53.2 6.6,56.9 		"/>
		<polygon class="st0" points="6.6,61.5 12.5,57.6 18.3,61.5 18.3,68 14.3,68 14.3,63.7 10.9,63.7 10.9,68 6.6,68 		"/>
	</g>
	<polygon class="st0" points="40.8,12.3 53.9,12.3 34.4,39.2 54.7,68.2 41.4,68.2 21.7,39.5 	"/>
	<path class="st0" d="M92,32.2h10.5c0-0.1,0.8-19.8-21.3-20.8c-22.3-1-25.5,18.7-25.5,18.7s-4.4,20.8,7.9,31.8
		c11.9,10.6,26.4,4,26.4,4c-0.3,0.2,10.8-4.1,12.6-17l-10.6,0.1c0,0-2.5,8.9-10.8,9.3c-7.1,0.4-17.5-3.6-15.3-23.7
		c0.9-7.9,5.7-12.7,10.2-13.9c5.8-1.4,9.9,0.9,9.9,0.9S91.6,24.3,92,32.2z"/>
	<path class="st0" d="M111.4,54.8h-4.3v17h10.2v-6.7h33.3v6.7h9.7V55.1l-5.2,0l0-42.7h-30L117.2,37L111.4,54.8z M132.7,21.9h12.5
		v33.3h-22.9L132.7,21.9z"/>
</g>
<g>
	<path class="st0" d="M11.7,75.4v7.1H11v-6.4H7.4v6.4H6.6v-7.1H11.7z"/>
	<path class="st0" d="M15.9,77.3c0.7,0,1.3,0.3,1.8,0.8c0.5,0.5,0.8,1.1,0.8,1.9c0,0.7-0.3,1.4-0.8,1.9c-0.5,0.5-1.1,0.8-1.8,0.8
		c-0.9,0-1.6-0.4-2-1.1v3h-0.7v-7.1h0.7v1C14.4,77.7,15,77.3,15.9,77.3z M14.5,81.4c0.4,0.4,0.9,0.6,1.4,0.6c0.6,0,1-0.2,1.4-0.6
		c0.4-0.4,0.6-0.9,0.6-1.4c0-0.6-0.2-1-0.6-1.4c-0.4-0.4-0.9-0.6-1.4-0.6c-0.6,0-1,0.2-1.4,0.6c-0.4,0.4-0.6,0.9-0.6,1.4
		C13.9,80.6,14.1,81,14.5,81.4z"/>
	<path class="st0" d="M23.9,81.9c-0.5,0.5-1.1,0.8-1.9,0.8c-0.7,0-1.4-0.3-1.9-0.8c-0.5-0.5-0.8-1.1-0.8-1.9s0.3-1.4,0.8-1.9
		s1.1-0.8,1.9-0.8c0.7,0,1.4,0.3,1.9,0.8c0.5,0.5,0.8,1.1,0.8,1.9S24.4,81.4,23.9,81.9z M20.6,81.4C21,81.8,21.5,82,22,82
		c0.6,0,1-0.2,1.4-0.6C23.8,81,24,80.6,24,80c0-0.6-0.2-1-0.6-1.4C23.1,78.2,22.6,78,22,78c-0.6,0-1,0.2-1.4,0.6
		C20.2,79,20,79.4,20,80C20,80.6,20.2,81,20.6,81.4z"/>
	<path class="st0" d="M28.2,82.7c-0.8,0-1.4-0.3-1.9-0.8c-0.5-0.5-0.8-1.1-0.8-1.9s0.3-1.4,0.8-1.9c0.5-0.5,1.1-0.8,1.9-0.8
		c0.5,0,0.9,0.1,1.3,0.4c0.4,0.2,0.7,0.6,0.9,1L29.8,79c-0.1-0.3-0.4-0.5-0.7-0.7c-0.3-0.2-0.6-0.3-1-0.3c-0.6,0-1,0.2-1.4,0.6
		c-0.4,0.4-0.6,0.9-0.6,1.4c0,0.6,0.2,1,0.6,1.4c0.4,0.4,0.9,0.6,1.4,0.6c0.4,0,0.7-0.1,1-0.3c0.3-0.2,0.5-0.4,0.7-0.7l0.6,0.3
		c-0.2,0.4-0.5,0.7-0.9,1C29.1,82.5,28.7,82.7,28.2,82.7z"/>
	<path class="st0" d="M35,77.5v0.6h-1.8v4.4h-0.7v-4.4h-1.8v-0.6H35z"/>
	<path class="st0" d="M36.4,76.3c-0.1,0.1-0.2,0.1-0.3,0.1c-0.1,0-0.3,0-0.3-0.1c-0.1-0.1-0.1-0.2-0.1-0.3c0-0.1,0-0.2,0.1-0.3
		c0.1-0.1,0.2-0.1,0.3-0.1c0.1,0,0.2,0,0.3,0.1c0.1,0.1,0.1,0.2,0.1,0.3C36.6,76,36.5,76.2,36.4,76.3z M35.8,82.5v-5.1h0.7v5.1H35.8
		z"/>
	<path class="st0" d="M40.6,77.3c0.7,0,1.3,0.3,1.8,0.8c0.5,0.5,0.8,1.1,0.8,1.9c0,0.7-0.3,1.4-0.8,1.9c-0.5,0.5-1.1,0.8-1.8,0.8
		c-0.9,0-1.6-0.4-2-1.1v3h-0.7v-7.1h0.7v1C39,77.7,39.7,77.3,40.6,77.3z M39.1,81.4c0.4,0.4,0.9,0.6,1.4,0.6c0.6,0,1-0.2,1.4-0.6
		c0.4-0.4,0.6-0.9,0.6-1.4c0-0.6-0.2-1-0.6-1.4c-0.4-0.4-0.9-0.6-1.4-0.6c-0.6,0-1,0.2-1.4,0.6c-0.4,0.4-0.6,0.9-0.6,1.4
		C38.5,80.6,38.7,81,39.1,81.4z"/>
	<path class="st0" d="M50.9,82.5H50l-2.5-2.4v2.4h-0.7v-5.1h0.7v2.2l2.4-2.2h0.9l-2.6,2.4L50.9,82.5z"/>
	<path class="st0" d="M55.4,77.5h0.7v5.1h-0.7v-2.2h-2.9v2.2h-0.7v-5.1h0.7v2.2h2.9V77.5z"/>
	<path class="st0" d="M61.2,77.5h0.6v5.1h-0.7v-3.9l-3,3.9h-0.6v-5.1h0.7v3.9L61.2,77.5z"/>
	<path class="st0" d="M69.1,82.5h-0.8l-2.1-2.4v2.4h-0.7v-2.4l-2.1,2.4h-0.8l2.3-2.6l-2.2-2.4h0.8l2,2.2v-2.2h0.7v2.2l2-2.2H69
		l-2.2,2.4L69.1,82.5z"/>
	<path class="st0" d="M73.9,81.9c-0.5,0.5-1.1,0.8-1.9,0.8s-1.4-0.3-1.9-0.8c-0.5-0.5-0.8-1.1-0.8-1.9s0.3-1.4,0.8-1.9
		s1.1-0.8,1.9-0.8s1.4,0.3,1.9,0.8c0.5,0.5,0.8,1.1,0.8,1.9S74.4,81.4,73.9,81.9z M70.5,81.4c0.4,0.4,0.9,0.6,1.4,0.6
		c0.6,0,1-0.2,1.4-0.6C73.8,81,74,80.6,74,80c0-0.6-0.2-1-0.6-1.4C73,78.2,72.5,78,72,78c-0.6,0-1,0.2-1.4,0.6
		C70.2,79,70,79.4,70,80C70,80.6,70.2,81,70.5,81.4z"/>
	<path class="st0" d="M79.8,82.5h-0.9l-2.5-2.4v2.4h-0.7v-5.1h0.7v2.2l2.4-2.2h0.9l-2.6,2.4L79.8,82.5z"/>
	<path class="st0" d="M81.9,81.7L81.3,84h-0.6l0.4-2.3H81.9z"/>
	<path class="st0" d="M92.5,81.9h0.7v2h-0.7v-1.4h-6.8v-5.1h0.7v4.4h2.4v-4.4h0.7v4.4h2.4v-4.4h0.7V81.9z"/>
	<path class="st0" d="M98.3,81.9c-0.5,0.5-1.1,0.8-1.9,0.8c-0.7,0-1.4-0.3-1.9-0.8c-0.5-0.5-0.8-1.1-0.8-1.9s0.3-1.4,0.8-1.9
		c0.5-0.5,1.1-0.8,1.9-0.8c0.7,0,1.4,0.3,1.9,0.8c0.5,0.5,0.8,1.1,0.8,1.9S98.8,81.4,98.3,81.9z M95,81.4c0.4,0.4,0.9,0.6,1.4,0.6
		c0.6,0,1-0.2,1.4-0.6c0.4-0.4,0.6-0.9,0.6-1.4c0-0.6-0.2-1-0.6-1.4c-0.4-0.4-0.9-0.6-1.4-0.6c-0.6,0-1,0.2-1.4,0.6
		c-0.4,0.4-0.6,0.9-0.6,1.4C94.4,80.6,94.6,81,95,81.4z"/>
	<path class="st0" d="M105.3,79.9c0.6,0.2,0.9,0.6,0.9,1.2c0,0.4-0.2,0.8-0.5,1.1c-0.3,0.3-0.8,0.4-1.4,0.4c-1,0-1.7-0.4-2-1.2
		l0.6-0.3c0.2,0.6,0.7,0.9,1.4,0.9c0.4,0,0.7-0.1,0.9-0.3c0.2-0.2,0.3-0.4,0.3-0.6c0-0.2-0.1-0.4-0.3-0.6c-0.2-0.1-0.4-0.2-0.7-0.2
		h-0.7v-0.6h0.5c0.3,0,0.5-0.1,0.7-0.2c0.2-0.1,0.2-0.3,0.2-0.6c0-0.2-0.1-0.4-0.3-0.6c-0.2-0.2-0.5-0.2-0.8-0.2
		c-0.6,0-1.1,0.3-1.3,0.8l-0.6-0.3c0.3-0.7,0.9-1.1,1.8-1.1c0.5,0,1,0.1,1.3,0.4c0.3,0.3,0.5,0.6,0.5,1
		C105.9,79.3,105.7,79.7,105.3,79.9z"/>
	<path class="st0" d="M111.6,77.5h0.7v5.1h-0.7v-1c-0.5,0.7-1.1,1.1-2,1.1c-0.7,0-1.3-0.3-1.8-0.8c-0.5-0.5-0.8-1.1-0.8-1.9
		c0-0.7,0.3-1.4,0.8-1.9c0.5-0.5,1.1-0.8,1.8-0.8c0.9,0,1.6,0.4,2,1.1V77.5z M108.1,81.4c0.4,0.4,0.9,0.6,1.4,0.6
		c0.6,0,1-0.2,1.4-0.6c0.4-0.4,0.6-0.9,0.6-1.4c0-0.6-0.2-1-0.6-1.4c-0.4-0.4-0.9-0.6-1.4-0.6c-0.6,0-1,0.2-1.4,0.6
		c-0.4,0.4-0.6,0.9-0.6,1.4C107.6,80.6,107.8,81,108.1,81.4z"/>
	<path class="st0" d="M117.9,82.5h-0.8l-1.6-2.1l-1.6,2.1h-0.8l2-2.6l-1.9-2.4h0.8l1.4,1.9l1.4-1.9h0.8l-1.8,2.4L117.9,82.5z"/>
	<path class="st0" d="M122.7,81.9c-0.5,0.5-1.1,0.8-1.9,0.8c-0.7,0-1.4-0.3-1.9-0.8c-0.5-0.5-0.8-1.1-0.8-1.9s0.3-1.4,0.8-1.9
		c0.5-0.5,1.1-0.8,1.9-0.8c0.7,0,1.4,0.3,1.9,0.8c0.5,0.5,0.8,1.1,0.8,1.9S123.2,81.4,122.7,81.9z M119.4,81.4
		c0.4,0.4,0.9,0.6,1.4,0.6c0.6,0,1-0.2,1.4-0.6c0.4-0.4,0.6-0.9,0.6-1.4c0-0.6-0.2-1-0.6-1.4c-0.4-0.4-0.9-0.6-1.4-0.6
		c-0.6,0-1,0.2-1.4,0.6c-0.4,0.4-0.6,0.9-0.6,1.4C118.8,80.6,119,81,119.4,81.4z"/>
	<path class="st0" d="M128.8,77.5v5.1h-0.7v-4.4h-2.9v4.4h-0.7v-5.1H128.8z"/>
	<path class="st0" d="M134.4,77.5v5.1h-0.7v-4.4h-2.3v2.3c0,0.8-0.2,1.4-0.5,1.7c-0.3,0.3-0.8,0.5-1.3,0.4v-0.6
		c0.4,0,0.7-0.1,0.9-0.3c0.2-0.2,0.3-0.6,0.3-1.3v-2.9H134.4z"/>
	<path class="st0" d="M140.2,77.3c0.7,0,1.4,0.3,1.9,0.8c0.5,0.5,0.8,1.1,0.8,1.9s-0.3,1.4-0.8,1.9c-0.5,0.5-1.1,0.8-1.9,0.8
		c-0.7,0-1.3-0.2-1.8-0.7c-0.5-0.4-0.8-1-0.8-1.7h-1.1v2.2h-0.7v-5.1h0.7v2.2h1.1c0.1-0.7,0.4-1.2,0.8-1.7
		C138.9,77.6,139.5,77.3,140.2,77.3z M138.7,81.4c0.4,0.4,0.9,0.6,1.4,0.6c0.6,0,1-0.2,1.4-0.6c0.4-0.4,0.6-0.9,0.6-1.4
		c0-0.6-0.2-1-0.6-1.4c-0.4-0.4-0.9-0.6-1.4-0.6c-0.6,0-1,0.2-1.4,0.6c-0.4,0.4-0.6,0.9-0.6,1.4C138.2,80.6,138.4,81,138.7,81.4z"/>
	<path class="st0" d="M148.3,77.3c0.7,0,1.4,0.3,1.9,0.8c0.5,0.5,0.8,1.1,0.8,1.9s-0.3,1.4-0.8,1.9c-0.5,0.5-1.1,0.8-1.9,0.8
		c-0.7,0-1.3-0.2-1.8-0.7c-0.5-0.4-0.8-1-0.8-1.7h-1.1v2.2h-0.7v-5.1h0.7v2.2h1.1c0.1-0.7,0.4-1.2,0.8-1.7
		C147,77.6,147.6,77.3,148.3,77.3z M146.9,81.4c0.4,0.4,0.9,0.6,1.4,0.6c0.6,0,1-0.2,1.4-0.6c0.4-0.4,0.6-0.9,0.6-1.4
		c0-0.6-0.2-1-0.6-1.4c-0.4-0.4-0.9-0.6-1.4-0.6c-0.6,0-1,0.2-1.4,0.6c-0.4,0.4-0.6,0.9-0.6,1.4C146.3,80.6,146.5,81,146.9,81.4z"/>
	<path class="st0" d="M155.5,77.5v0.6h-1.8v4.4H153v-4.4h-1.8v-0.6H155.5z"/>
	<path class="st0" d="M158.4,79.4c0.5,0,0.9,0.1,1.2,0.4c0.3,0.3,0.5,0.7,0.5,1.1c0,0.5-0.2,0.8-0.5,1.1c-0.3,0.3-0.7,0.4-1.2,0.4
		h-2.1v-5.1h0.7v1.9H158.4z M158.4,81.9c0.3,0,0.5-0.1,0.7-0.3c0.2-0.2,0.3-0.4,0.3-0.7c0-0.3-0.1-0.5-0.3-0.7
		c-0.2-0.2-0.4-0.3-0.7-0.3H157v1.8H158.4z"/>
</g>
</svg>
